<svg width="31" height="32" viewBox="0 0 31 32" fill="none" xmlns="http://www.w3.org/2000/svg">
<path d="M30.9909 0H0.00908203C0.00406616 0 0 0.00406616 0 0.00908203V30.9909C0 30.9959 0.00406616 31 0.00908203 31H30.9909C30.9959 31 31 30.9959 31 30.9909V0.00908203C31 0.00406616 30.9959 0 30.9909 0Z" fill="#1B1817"/>
<path d="M20.2832 30.2129C21.1309 30.2129 21.0098 31.2422 21.0098 31.2422H9.99024C9.99024 31.2422 9.86915 30.2129 10.7168 30.2129C11.5039 30.2129 11.6856 29.8496 11.6856 29.4863L11.625 26.459C7.32618 27.4277 6.41798 24.7637 6.41798 24.7637C5.69141 22.9473 4.72266 22.5234 4.72266 22.5234C3.26954 21.5547 4.78321 21.5547 4.78321 21.5547C6.35743 21.6758 7.20509 23.1289 7.20509 23.1289C8.53712 25.4902 10.7774 24.8242 11.6856 24.4609C11.8066 23.4316 12.2305 22.7656 12.6543 22.3418C9.20313 21.9785 5.63087 20.6465 5.63087 14.7129C5.63087 13.0176 6.23634 11.625 7.20509 10.5352C7.02345 10.1719 6.53907 8.59766 7.38673 6.47852C7.38673 6.47852 8.65821 6.0547 11.625 8.05274C14.168 7.32618 16.832 7.32618 19.375 8.05274C22.3418 6.0547 23.6133 6.47852 23.6133 6.47852C24.4609 8.59766 23.9766 10.1719 23.7949 10.5352C24.7637 11.625 25.3691 13.0176 25.3691 14.7129C25.3691 20.6465 21.7363 21.9785 18.2852 22.3418C18.8906 22.8262 19.375 23.7949 19.375 25.2481L19.3145 29.4863C19.3145 29.8496 19.4961 30.2129 20.2832 30.2129Z" fill="white"/>
</svg>
