<svg width="51" height="30" viewBox="0 0 51 30" fill="none" xmlns="http://www.w3.org/2000/svg">
<path fill-rule="evenodd" clip-rule="evenodd" d="M49.3528 2.39163C49.7003 1.25319 49.3528 0.416649 47.6986 0.416649H42.2286C40.8378 0.416649 40.1965 1.1393 39.8488 1.93615C39.8488 1.93615 37.0669 8.59597 33.1263 12.9219C31.8515 14.1742 31.2719 14.5727 30.5765 14.5727C30.2288 14.5727 29.7071 14.1742 29.7071 13.0358V2.39163C29.7071 1.0255 29.3219 0.416649 28.1627 0.416649H19.567C18.6978 0.416649 18.1751 1.05069 18.1751 1.65161C18.1751 2.94667 20.1453 3.24534 20.3484 6.88834V14.8004C20.3484 16.535 20.0295 16.8496 19.334 16.8496C17.4797 16.8496 12.9689 10.16 10.2936 2.50542C9.76932 1.01763 9.24347 0.416649 7.84549 0.416649H2.37546C0.812592 0.416649 0.5 1.1393 0.5 1.93615C0.5 3.35924 2.35446 10.4175 9.13468 19.7525C13.6548 26.1275 20.0233 29.5833 25.8184 29.5833C29.2954 29.5833 29.7257 28.8158 29.7257 27.4938V22.6754C29.7257 21.1404 30.055 20.834 31.1561 20.834C31.9673 20.834 33.3582 21.2325 36.6034 24.3063C40.3123 27.9492 40.9238 29.5833 43.0098 29.5833H48.4801C50.0428 29.5833 50.8242 28.8158 50.3734 27.3011C49.8801 25.7915 48.1094 23.6013 45.7598 21.0048C44.4848 19.5248 42.5723 17.931 41.9928 17.134C41.1815 16.1096 41.4134 15.6542 41.9928 14.7435C41.9928 14.7435 48.6573 5.52222 49.3528 2.39163V2.39163Z" fill="white"/>
</svg>
