<svg width="48" height="32" viewBox="0 0 48 32" fill="none" xmlns="http://www.w3.org/2000/svg">
<path d="M46.3476 5.36165C46.0887 4.43386 45.572 3.5856 44.8493 2.9019C44.1263 2.21821 43.2229 1.72311 42.2292 1.46624C38.5521 0.509466 23.819 0.509466 23.819 0.509466C17.6758 0.440862 11.5341 0.745232 5.4335 1.42068C4.43949 1.69631 3.53747 2.20282 2.81259 2.89238C2.08773 3.58192 1.56392 4.43175 1.29062 5.36165C0.631523 8.87423 0.311567 12.4346 0.334567 15.9999C0.30999 19.5655 0.629958 23.126 1.29062 26.6385C1.55829 27.5658 2.08097 28.4125 2.80732 29.0957C3.53367 29.7786 4.43868 30.2741 5.4335 30.5338C9.15966 31.4905 23.819 31.4905 23.819 31.4905C29.9705 31.5592 36.1204 31.2549 42.2292 30.5793C43.2229 30.3225 44.1263 29.8274 44.8493 29.1437C45.572 28.46 46.0887 27.6117 46.3476 26.684C47.0235 23.173 47.3517 19.6121 47.3282 16.0456C47.3789 12.4631 47.0503 8.88449 46.3476 5.36165ZM19.1369 22.6291V9.37098L31.394 15.9999L19.1369 22.6291Z" fill="white"/>
</svg>
